<?xml version="1.0" encoding="utf-8"?>
<svg xmlns="http://www.w3.org/2000/svg" viewBox="-1382.2549 -516.594 1921.7963 1047.005" width="1921.8px" height="1047.01px" preserveAspectRatio="none"><g class="layer" transform="matrix(0.9999999999999999, 0, 0, 0.9999999999999999, -1381.4649658203125, -544.593994140625)" id="object-0"><title>Layer 1</title><path d="m0,28c5.89,5.89 7,16 7.25,24c-0.13,5.07 -1.23,10.04 -2.25,15c0.88,-0.05 1.77,-0.09 2.68,-0.14c12.74,-0.38 22.68,2.54 32.32,11.14c10.95,12.51 15.41,28.61 15,45c0.87,0.08 1.73,0.17 2.63,0.25c6.19,1.38 10.11,5.23 14.37,9.75c1.16,-0.51 1.16,-0.51 2.34,-1.02c1.05,-0.45 2.09,-0.9 3.16,-1.35c1.02,-0.45 2.04,-0.89 3.09,-1.34c15.76,-5.96 32.34,-4.48 47.67,2.11c23.32,11.5 39.12,33.66 47.41,57.84c3.67,11.48 6.47,23.03 6.31,35.14c-0.77,11.44 -0.77,11.44 3.4,21.46c3.13,1.7 6.28,2.9 9.62,4.16c8.9,6.45 18.02,15.84 20,27c0.6,-0.14 1.21,-0.28 1.83,-0.43c6.2,-1.35 12.08,-1.92 18.42,-1.88c0.91,0 1.83,0.01 2.77,0.01c19.92,0.34 36.48,7.75 50.98,21.3c0,0.66 0,1.32 0,2c0.66,0 1.32,0 2,0c8.17,11.12 12.52,22.14 13,36c1.31,0.13 1.31,0.13 2.64,0.26c14.28,1.69 26.47,6.2 35.74,17.62c5.84,8.51 6.36,16.96 5.62,27.12c-0.47,2.51 -1.09,4.61 -2,7c1.18,0.5 2.35,0.99 3.56,1.5c4.92,2.44 8.33,6.01 11.44,10.5c0,0.66 0,1.32 0,2c0.61,0.03 1.21,0.05 1.84,0.08c10.5,0.71 18.09,4.31 26.16,10.92c0.73,0.51 1.47,1.03 2.23,1.56c0.87,0.71 0.87,0.71 1.77,1.44c0,0.66 0,1.32 0,2c0.66,0 1.32,0 2,0c3.87,5.22 6.62,10.66 8,17c0.78,0.07 1.56,0.15 2.36,0.23c22.52,2.64 45.77,11.14 62.64,26.77c0,0.66 0,1.32 0,2c0.86,0.36 0.86,0.36 1.73,0.72c13.85,7.8 22.44,28.27 26.65,42.72c3.24,13.16 3.01,26.92 -1,39.81c-0.82,2.74 -1.17,4.85 -1.38,7.75c1.97,3.29 4.15,5.17 7.13,7.57c12.69,10.74 21.41,34.23 22.87,50.43c0.17,4.33 0.19,8.66 0.19,13c0.01,1.15 0.02,2.3 0.03,3.48c0.01,5.9 -0.18,10.97 -2.22,16.52c0.95,0.19 1.9,0.37 2.88,0.56c5.44,1.54 9.66,5.09 14.12,8.44c0.91,0.62 1.82,1.24 2.75,1.88c5.1,4.81 8.22,10.46 10.25,17.12c0.75,0.05 1.51,0.1 2.28,0.16c15.64,1.67 32.68,10.6 42.72,22.84c1.82,2.73 3.54,5.5 5.25,8.3c2.07,3.19 4.44,5.88 6.99,8.68c4.44,5.1 8.14,10.71 11.26,16.71c1.6,3 3.16,5.1 5.69,7.37c3.86,3.59 6.48,7.81 9.25,12.25c0.45,0.72 0.9,1.44 1.36,2.18c3.2,5.24 3.2,5.24 3.2,7.51c0.73,0.09 1.45,0.19 2.2,0.28c8.89,2.28 17.55,12.36 22.18,20c2.62,5.06 2.62,5.06 2.62,7.72c0.88,0.26 1.76,0.51 2.66,0.77c10.73,3.94 19.37,12.68 24.22,22.86c1.59,3.77 2.79,7.25 3.12,11.37c0.59,0.07 1.19,0.15 1.8,0.23c11.61,1.84 21.5,7.91 29.2,16.77c6,9.63 6,9.63 6,15c3.85,-2.13 7.48,-4.33 11.06,-6.87c13.66,-9.17 29.04,-12.72 45.32,-12.57c1.18,0.01 2.36,0.02 3.57,0.03c20.49,0.39 38.19,8.09 52.48,22.94c10.86,12.46 16.54,27.06 17.57,43.47c1.13,0.06 2.27,0.12 3.44,0.19c8.43,1.08 15.39,6.25 20.56,12.81c0.95,1.72 1.85,3.47 2.7,5.24c0.44,0.89 0.87,1.79 1.32,2.71c0.32,0.67 0.65,1.35 0.98,2.05c1,-0.02 1,-0.02 2.01,-0.03c24.36,-0.34 24.36,-0.34 33.99,2.03c0.27,-0.75 0.53,-1.49 0.81,-2.26c4.7,-10.82 16.3,-17.94 26.68,-22.45c12.18,-4.47 26.72,-6.33 39.51,-3.29c0.12,-0.55 0.25,-1.09 0.38,-1.65c2.05,-7.53 6.15,-13.39 12.71,-17.73c3.83,-1.99 7.82,-3.28 11.91,-4.62c0.09,-0.78 0.17,-1.55 0.26,-2.35c2.55,-19.62 10.82,-34.85 26.12,-47.46c13.27,-9.8 30.91,-13.96 47.17,-11.69c15.19,2.74 27.53,8.75 39.45,18.5c0.26,-0.75 0.51,-1.5 0.78,-2.27c4.09,-10.95 10.35,-18.89 20.65,-24.61c4.07,-1.77 8.18,-2.58 12.57,-3.12c0.06,-1.11 0.12,-2.23 0.19,-3.37c1.14,-8.84 6.26,-16.75 12.81,-22.63c4.15,-2.97 8.43,-5.72 13,-8c0.88,-1.81 0.88,-1.81 1.69,-4c5.14,-11.93 13.93,-18.95 25.61,-24.03c3.63,-1.3 6.86,-1.75 10.7,-1.97c-0.06,-0.76 -0.12,-1.53 -0.18,-2.32c-0.59,-14.19 3.76,-26.07 13.18,-36.68c8.06,-8.38 17.77,-13.94 29.58,-14.23c1.56,0 3.11,0.02 4.67,0.04c0.79,0 1.58,0 2.39,0c3.64,0.03 6.83,0.2 10.36,1.19c-0.16,-0.58 -0.32,-1.16 -0.48,-1.75c-2.35,-10.21 0.45,-21.52 5.86,-30.25c8.58,-12.38 20.09,-19.45 34.66,-22.66c4.63,-0.81 9.29,-0.65 13.96,-0.34c0.03,-0.58 0.05,-1.16 0.08,-1.76c0.55,-7.63 3.3,-12.02 8.92,-17.24c-1.42,-4.5 -3.14,-8.81 -5,-13.14c-5.73,-16.36 -4.61,-35.43 2.77,-51c12.62,-25.52 33.52,-43.28 60.17,-53.17c11.93,-4.01 24.29,-7.05 36.9,-6.4c1.25,0.05 2.5,0.1 3.78,0.16c2.59,0.12 5.18,0.27 7.76,0.47c7.21,0.33 7.21,0.33 13.16,-3.24c2.04,-2.81 3.74,-5.67 5.46,-8.68c6.36,-8.08 15.96,-18.65 26,-22c-0.08,-1.22 -0.16,-2.43 -0.25,-3.69c0.03,-9.76 3.66,-20.02 10.25,-27.31c0.66,0 1.32,0 2,0c0.33,-0.99 0.66,-1.98 1,-3c0.66,0 1.32,0 2,0c0,-0.66 0,-1.32 0,-2c15,-11.72 30.65,-14.41 49,-14c0.06,-1.67 0.06,-1.67 0.13,-3.37c0.88,-6.71 4.19,-12.17 9.14,-16.72c4.21,-3.14 7.84,-5.09 12.98,-6.22c3.18,-0.8 4.44,-1.31 6.54,-3.88c1.49,-2.56 2.86,-5.17 4.21,-7.81c3.03,-4.41 5.73,-6.39 10.38,-8.81c7.42,-4.47 9.27,-11.44 11.95,-19.26c6.93,-20.04 21.14,-33.9 39.92,-43.24c8.49,-3.72 18.44,-6.69 27.75,-6.69c-0.14,-0.82 -0.29,-1.65 -0.44,-2.5c-4.8,-29.87 0.8,-59.48 18,-84.5c1.46,-2.01 2.94,-4.02 4.44,-6c0.55,-0.74 1.1,-1.47 1.67,-2.23c10.98,-13.59 28.93,-24.19 46.27,-26.23c14.14,-1.26 25.95,0.84 39.06,6.46c0.58,-0.78 1.16,-1.55 1.75,-2.36c2.07,-2.42 3.38,-3.6 6.19,-4.95c0.97,-0.49 0.97,-0.49 1.96,-0.99c2.46,-0.82 4.52,-0.82 7.1,-0.7c-0.05,-0.79 -0.09,-1.58 -0.14,-2.39c-0.44,-13.37 3.31,-26.13 11.8,-36.67c6.32,-6.69 14.89,-12.48 24.3,-13.06c4.69,-0.13 9.36,-0.04 14.04,0.12c-0.32,-1.02 -0.64,-2.03 -0.98,-3.08c-3.16,-11.15 -1,-22.29 4.27,-32.38c6.26,-10.21 15.38,-16.84 26.71,-20.54c5.28,-1.1 10.63,-1.6 16,-2c0.04,-0.57 0.07,-1.14 0.11,-1.72c0.46,-5.36 1.52,-9.45 3.89,-14.28c0.33,0 0.66,0 1,0c0,342.54 0,685.08 0,1038c-633.6,0 -1267.2,0 -1920,0c0,-345.51 0,-691.02 0,-1047z" id="svg_1" style="fill: rgb(253, 66, 137);"/><path d="m0,0c0,235.95 0,471.9 0,715c-281.82,0 -563.64,0 -854,0c5.08,-12.69 19.84,-19.46 31.81,-24.72c16.02,-6.62 33.97,-10.48 51.28,-10.38c0.94,0 1.89,0.01 2.86,0.01c3,0 5.99,0.01 8.99,0.03c2.04,0 4.08,0.01 6.12,0.01c4.98,0.01 9.96,0.03 14.94,0.05c0.45,-1.18 0.45,-1.18 0.91,-2.38c3.5,-8.44 12.26,-15.38 20.36,-19.13c7.56,-2.91 14.63,-4.33 22.73,-4.49c-0.08,-0.89 -0.16,-1.77 -0.25,-2.69c0.06,-14.9 9.31,-27.2 19.25,-37.31c0.68,-0.69 1.35,-1.38 2.05,-2.09c19.3,-18.35 49.53,-28.46 75.97,-28.13c6.75,0.5 13.37,1.86 19.98,3.22c1,0.2 1,0.2 2.03,0.41c14.51,2.98 27.82,8.89 40.97,15.59c1.98,-3.3 3.96,-6.6 6,-10c5.93,0.51 10.44,2.32 15.75,4.94c0.75,0.36 1.51,0.72 2.29,1.09c3.15,1.52 6.04,3.02 8.96,4.97c0.11,-0.73 0.22,-1.47 0.34,-2.23c2.26,-9.46 10.87,-17.05 18.6,-22.33c10.85,-6.64 24.24,-11.66 37.06,-11.44c0.15,-0.56 0.29,-1.11 0.45,-1.69c3.75,-12.79 14.09,-22.88 25.55,-29.31c15.43,-7 15.43,-7 20,-7c0.11,-0.57 0.21,-1.15 0.32,-1.74c3.02,-10.11 14.05,-16.89 22.56,-21.98c13.2,-7.03 26.26,-10.06 41.12,-10.28c-0.05,-1.05 -0.09,-2.1 -0.14,-3.18c-0.25,-8.14 -0.31,-14.71 4.14,-21.82c0.44,-0.75 0.87,-1.49 1.32,-2.26c11.34,-18.27 30.93,-27.41 51.24,-32.24c4.87,-0.81 9.59,-0.26 14.44,0.5c0,-0.66 0,-1.32 0,-2c10.91,-0.22 21.23,0.06 32,2c-0.48,-1.29 -0.48,-1.29 -0.98,-2.61c-2.39,-7.92 -1.99,-16.11 1.85,-23.47c1.62,-2.74 3.24,-5.36 5.13,-7.92c0.41,-0.55 0.81,-1.11 1.23,-1.68c14.73,-18.65 41.49,-24.08 63.64,-28.01c2.73,-0.26 5.43,-0.35 8.17,-0.36c1.1,-0.01 1.1,-0.01 2.21,-0.01c3.25,0 6.5,0.02 9.75,0.06c-0.05,-0.9 -0.1,-1.8 -0.14,-2.72c0.23,-5.26 2.65,-8.47 6.14,-12.28c3.51,-2.63 7.16,-4.88 11,-7c-0.42,-0.43 -0.85,-0.85 -1.29,-1.29c-10.8,-11.52 -15.73,-25.16 -16.71,-40.71c-9.16,4.79 -9.16,4.79 -15,13c-0.39,2.32 -0.73,4.66 -1,7c-0.56,0.04 -1.12,0.08 -1.7,0.12c-27.05,1.99 -54.84,5.89 -76.3,23.88c-1.05,0.76 -2.1,1.53 -3.19,2.31c-6.65,6.36 -10.47,14.27 -10.95,23.42c-0.08,4.91 0.3,9.43 1.14,14.27c-1.1,-0.02 -2.2,-0.03 -3.33,-0.05c-4.15,-0.05 -8.3,-0.09 -12.45,-0.11c-1.79,-0.02 -3.57,-0.04 -5.35,-0.07c-25.73,-0.37 -49.37,4.66 -68.72,22.94c-3.28,3.48 -5.82,7.12 -8.15,11.29c-0.39,0.66 -0.78,1.32 -1.18,2c-3.72,7.15 -4.08,15.1 -4.82,23c-1.56,0.24 -1.56,0.24 -3.16,0.48c-20.92,3.34 -43.57,9.46 -56.97,27.33c-1.97,2.88 -1.97,2.88 -2.13,5.28c-0.24,0.63 -0.49,1.26 -0.74,1.91c-2.48,1.02 -2.48,1.02 -5.75,1.81c-14.84,4.2 -28.13,12.81 -36.25,26.19c-0.54,1.52 -1.06,3.05 -1.57,4.58c-1.18,2.71 -1.83,4.08 -4.43,5.54c-2.49,0.72 -4.94,1.21 -7.5,1.63c-1.81,0.38 -3.62,0.76 -5.43,1.15c-0.88,0.18 -1.75,0.36 -2.65,0.55c-11.76,2.68 -25.11,9.73 -32.42,19.55c-2.21,3.91 -4.16,7.9 -6,12c-4.54,-1.4 -8.74,-3.24 -13,-5.31c-22.97,-10.82 -46.8,-14.31 -72,-15.69c0,-0.66 0,-1.32 0,-2c8.51,-8.2 20.49,-15.55 32.56,-16.19c0.81,0.06 1.61,0.13 2.44,0.19c-0.09,-1.52 -0.09,-1.52 -0.19,-3.07c0.48,-10.08 8.25,-20.94 15.19,-27.93c15.22,-13 15.22,-13 22,-13c0.33,-1.26 0.66,-2.52 1,-3.81c4.74,-14.03 16.8,-24.17 29.62,-30.68c7.75,-3.46 14.85,-5.78 23.38,-5.51c-0.05,-1.63 -0.05,-1.63 -0.11,-3.3c-0.43,-19.05 4.74,-34.55 18.11,-48.7c9.85,-9.31 21.59,-15.16 35,-17c0.33,-0.33 0.66,-0.66 1,-1c3.49,-0.25 7,-0.19 10.5,-0.19c0.97,-0.01 1.94,-0.02 2.94,-0.03c6.17,-0.02 11.59,0.66 17.56,2.22c-0.17,-0.89 -0.33,-1.77 -0.5,-2.69c-2.04,-14.86 0.49,-28.56 8.5,-41.31c5.65,-7.38 12.02,-13.24 20,-18c0.87,-0.52 1.74,-1.04 2.63,-1.58c14.24,-7.83 29.32,-10.34 45.37,-9.42c-0.04,-1.06 -0.07,-2.12 -0.11,-3.21c0.2,-6.82 3.36,-12.9 8.11,-17.79c1.96,-1.39 3.95,-2.74 6,-4c-1.09,-3.77 -2.54,-7.11 -4.38,-10.56c-9.4,-18.37 -10.91,-42.05 -5.01,-61.78c5.97,-15.73 14.73,-29.51 26.39,-41.66c0.94,-1.01 0.94,-1.01 1.89,-2.05c25.82,-27.12 68.54,-45.08 105.86,-46.2c5.16,0.12 10.21,1.19 15.25,2.25c0,-0.66 0,-1.32 0,-2c3.1,-0.03 6.21,-0.05 9.31,-0.06c1.38,-0.02 1.38,-0.02 2.78,-0.03c4.89,-0.03 9.35,0.25 14.16,1.22c2.48,0.39 2.48,0.39 4.75,-0.13c2.43,-2.14 4.09,-4.45 5.93,-7.11c8.27,-11.56 21.93,-19.83 35.07,-24.89c0.99,0 1.98,0 3,0c-0.33,-1.16 -0.66,-2.31 -1,-3.5c-3,-13.81 -1.23,-27.24 5.62,-39.62c10.77,-16.51 25.77,-26.26 44.38,-31.88c1.08,-0.34 2.16,-0.68 3.28,-1.03c11.8,-3.1 21.92,-1.97 34.72,-1.97z" id="svg_2" transform="translate(1920,360)" style="fill: rgb(238, 46, 116);"/><path d="m0,447c5.9,1.18 9.2,3.56 14,7c0.89,0.6 1.77,1.2 2.69,1.81c5.58,5.28 9.9,12.18 10.69,19.88c-0.17,6.79 -3.19,13.08 -7.38,18.31c0.58,0.01 1.17,0.03 1.77,0.04c10.56,0.62 19.8,4.36 27.23,11.96c0,0.66 0,1.32 0,2c1.51,0.02 1.51,0.02 3.05,0.04c23.13,0.66 45.04,8.06 62.63,23.32c2.32,2.64 2.32,2.64 3.19,4.87c1.11,2.77 2.05,4.61 4.13,6.77c4.29,1.31 8.52,1.57 12.97,1.73c3.63,0.14 7.25,0.41 10.88,0.67c1.07,0.07 1.07,0.07 2.16,0.14c7.87,0.53 15.36,2.04 22.99,3.96c1.94,0.49 3.9,0.93 5.86,1.36c36.71,8.5 77.15,24.7 99.14,57.14c1.58,2.66 3.03,5.37 4.44,8.13c0.33,0.64 0.66,1.28 1,1.95c5.65,11.68 7.18,27.19 3.25,39.63c-1.38,3.85 -3.04,7.56 -4.69,11.29c-0.38,1.32 -0.73,2.65 -1,4c0.62,0.35 1.23,0.7 1.87,1.07c23.6,13.75 42.43,33.85 51.13,59.93c3.21,13.84 2.38,30.23 -4,43c0.53,0.14 1.07,0.27 1.62,0.41c9.02,2.61 16.54,7.3 21.64,15.3c1.12,3.47 0.85,6.66 0.74,10.29c0.72,-0.02 1.43,-0.03 2.17,-0.05c39.94,-0.75 83.82,4.01 114.14,32.93c4.96,5.11 9.92,10.96 11.24,18.12c2.29,4.75 6.37,5.73 11.08,7.69c22.42,10.01 43.59,25.99 53.59,49.14c5.61,14.71 6.15,32.63 -0.22,47.17c-2.71,5.52 -5.58,10.88 -9,16c1.49,-0.09 1.49,-0.09 3,-0.19c6.77,0.02 12.77,3.03 18,7.19c2.97,3.75 4,5.16 4,10c0.93,-0.23 0.93,-0.23 1.88,-0.46c2.85,-0.69 5.7,-1.37 8.56,-2.04c0.97,-0.24 1.95,-0.48 2.95,-0.72c6.03,-1.42 11.41,-2.04 17.61,-1.78c0.33,1.65 0.66,3.3 1,5c0.8,-0.23 0.8,-0.23 1.62,-0.46c2.46,-0.69 4.92,-1.37 7.38,-2.04c0.84,-0.24 1.68,-0.48 2.54,-0.72c13.84,-3.76 25.84,-0.36 38.25,6.33c6.99,4.11 12.95,9.29 16.21,16.89c0,1.32 0,2.64 0,4c1.09,0.06 1.09,0.06 2.2,0.11c17.15,1.12 33.34,6.48 45.87,18.65c4.57,5.31 7.08,11.28 7.06,18.3c0,1.32 0,1.32 0,2.66c-0.13,2.28 -0.13,2.28 -1.13,4.28c1.22,-0.29 2.44,-0.58 3.7,-0.87c9.61,-2.2 18.4,-3.77 28.3,-3.13c0,1.32 0,2.64 0,4c1.05,-0.33 2.1,-0.66 3.19,-1c10.83,-2.61 21.09,-1.52 30.81,4c4.39,3.24 8.37,6.94 12,11c0,0.66 0,1.32 0,2c-260.7,0 -521.4,0 -790,0c0,-207.24 0,-414.48 0,-628z" id="svg_3" style="fill: rgb(238, 46, 116);"/><path d="m66.82,214.26c12.77,11.17 23.57,24.47 26.18,41.74c0.07,2.43 0.09,4.87 0.07,7.31c-0.01,1.26 -0.02,2.51 -0.03,3.8c-0.01,0.95 -0.02,1.91 -0.04,2.89c1.22,-0.04 2.44,-0.08 3.69,-0.13c16.82,0.11 32.5,5.13 45.31,16.13c0.74,0.61 1.48,1.23 2.24,1.87c7.53,6.83 12.17,15.91 13,26.04c0.17,7.23 -0.78,12.96 -3.36,19.73c-0.99,2.25 -0.99,2.25 -0.88,4.36c0.68,0.18 1.36,0.37 2.06,0.56c7.75,2.41 13.75,6.1 18.94,12.44c0.78,2.78 0.78,2.78 1,5c1.01,-0.03 2.01,-0.06 3.04,-0.09c16.85,0.38 32.58,8.83 44.55,20.32c5.9,6.76 11.61,14.64 11.41,23.77c0.54,-0.04 1.08,-0.07 1.63,-0.11c19.52,-0.67 41.29,6.2 58.49,15.13c2.04,1.06 4.1,2.08 6.16,3.11c8.98,4.53 16.88,9.54 24.72,15.87c0.9,0.68 1.79,1.36 2.71,2.06c5.46,4.2 9.95,8.61 14.29,13.94c0.7,0.8 1.4,1.6 2.12,2.42c10.15,11.86 17.27,24.69 21.88,39.58c0.34,1.09 0.68,2.18 1.03,3.31c4.23,16.29 2.89,33.55 -1.49,49.63c-0.96,3.66 -1.74,7.36 -2.54,11.06c1.13,0.96 1.13,0.96 2.28,1.95c16.42,14.36 29.02,33.22 35.72,54.05c0.3,0.88 0.59,1.76 0.89,2.66c3.24,10.22 4.46,19.83 4.43,30.57c0,2 0.02,4 0.04,6.01c0.01,8.04 -0.8,15.09 -2.81,22.86c-0.53,2.82 -0.69,4.29 0.45,6.9c1.4,0.96 2.81,1.92 4.25,2.81c6.65,4.5 10.84,10.45 13.36,17.99c0.55,3.08 0.45,6.08 0.39,9.2c1.6,-0.07 1.6,-0.07 3.24,-0.14c31.21,-0.93 60.78,10.21 83.58,31.45c7.9,8.23 14.06,18.96 16.77,30.09c1.16,4.53 2.22,6.88 6.23,9.41c0.79,0.47 1.58,0.93 2.39,1.41c23.54,14.98 39.53,39.89 45.79,66.78c3.86,20.55 1.01,41.58 -6.79,60.77c-1.38,3.12 -1.38,3.12 -1.21,6.23c1.2,0.39 2.4,0.78 3.63,1.19c5.23,1.97 8.65,4.67 12.19,9.06c1.65,3.84 1.92,7.6 2.18,11.75c0.83,-0.34 1.65,-0.68 2.5,-1.03c9.61,-3.84 18.12,-6.36 28.5,-5.97c0.33,2.31 0.66,4.62 1,7c1.18,-0.56 1.18,-0.56 2.38,-1.13c10.59,-4.77 10.59,-4.77 16.62,-2.87c0.77,0.24 1.54,0.48 2.33,0.73c10.23,3.59 17.86,10.15 23.67,19.27c1.44,3.56 1.44,3.56 2,6c-0.95,-0.87 -1.89,-1.73 -2.87,-2.63c-14.73,-12.44 -31.89,-15.61 -50.69,-15.68c-0.74,-0.01 -1.47,-0.01 -2.24,-0.02c-10.86,-0.02 -21.01,0.8 -31.59,3.45c-3.61,0.88 -3.61,0.88 -7.61,0.88c-0.24,-0.89 -0.49,-1.78 -0.75,-2.69c-2.23,-5.92 -5.33,-8.85 -10.94,-11.46c-4,-1.47 -8.11,-2.2 -12.31,-2.85c1.33,-3.54 2.93,-6.64 4.88,-9.88c8.41,-15.37 9.18,-32.19 4.35,-48.79c-7.3,-22.2 -26.98,-39.07 -47.28,-49.38c-2.82,-1.38 -5.63,-2.76 -8.48,-4.08c-5.65,-2.68 -9.61,-5.54 -11.84,-11.62c-0.23,-0.69 -0.47,-1.37 -0.7,-2.08c-7.4,-17.42 -27.52,-26.52 -43.93,-33.17c-1.42,-0.59 -1.42,-0.59 -2.87,-1.19c-7.53,-2.93 -15.34,-4.67 -23.22,-6.39c-1.59,-0.35 -3.18,-0.72 -4.76,-1.08c-11.6,-2.56 -23.64,-2.54 -35.46,-2.9c-1.34,-0.05 -2.67,-0.09 -4.01,-0.14c-3.23,-0.1 -6.45,-0.2 -9.68,-0.3c-0.48,-1.99 -0.97,-3.97 -1.46,-5.95c-1.96,-7.44 -6.31,-10.97 -12.54,-15.05c-3.27,-1.81 -6.59,-3.46 -10,-5c0.29,-1.36 0.58,-2.71 0.88,-4.06c0.16,-0.76 0.32,-1.51 0.49,-2.29c0.63,-2.65 0.63,-2.65 1.68,-5.87c4.29,-16.95 -0.36,-33.83 -8.31,-48.9c-3.18,-5.27 -6.9,-10.08 -10.74,-14.88c-0.46,-0.61 -0.92,-1.22 -1.4,-1.84c-8.46,-10.78 -21.24,-18.7 -32.6,-26.16c0.44,-2.94 1.06,-5.11 2.44,-7.77c5.77,-11.93 6.23,-26.51 2.67,-39.13c-3.64,-10.25 -8.79,-19.06 -16.11,-27.1c-0.77,-0.87 -1.55,-1.74 -2.35,-2.64c-18.43,-19.54 -44.18,-31.73 -69.65,-39.36c-0.7,-0.22 -1.4,-0.43 -2.13,-0.66c-15.48,-4.69 -31.23,-7.8 -47.24,-10.03c-0.93,-0.13 -1.85,-0.26 -2.8,-0.39c-4.06,-0.54 -8.02,-0.99 -12.12,-0.98c-3.44,0 -6.39,-0.02 -9.71,-0.94c-2.19,-2.31 -3.38,-4.51 -4.74,-7.38c-5.52,-11.54 -20.85,-17.54 -32.21,-21.6c-1,-0.34 -2.01,-0.68 -3.05,-1.02c-0.83,-0.29 -1.66,-0.57 -2.52,-0.86c-4.49,-1.38 -8.89,-2.22 -13.55,-2.74c-17.1,-1.95 -17.1,-1.95 -22.12,-7.62c-5.68,-5.6 -15.19,-7.39 -22.81,-8.78c1.11,-2.81 2.25,-5.49 3.63,-8.19c2.42,-5.69 2.17,-12.01 0.37,-17.87c-4.6,-10.45 -13.96,-16.4 -24,-20.94c-7.42,-2.48 -7.42,-2.48 -15,-5c0,-67.32 0,-134.64 0,-204c25.09,-2.28 47.16,4.47 66.82,20.26z" id="svg_4" style="fill: rgb(238, 46, 116);"/><path d="m0,0c0,56.1 0,112.2 0,170c-8.95,2.24 -8.95,2.24 -13.19,2.64c-45.98,4.8 -97.25,21.88 -128.81,57.36c-6.83,8.46 -10.98,16.66 -14,27c-0.2,0.65 -0.4,1.3 -0.6,1.98c-2.92,14.81 1.72,28.55 9.95,40.85c1.57,2.17 1.57,2.17 3.36,3.84c1.29,1.33 1.29,1.33 1.29,3.33c0.66,0.33 1.32,0.66 2,1c-0.59,0.3 -1.18,0.61 -1.79,0.92c-4.79,2.53 -8.61,4.95 -12.21,9.08c-0.58,0.62 -1.16,1.24 -1.75,1.88c-1.72,2.92 -1.83,5.78 -2.25,9.12c-0.56,0.04 -1.12,0.08 -1.7,0.12c-27.05,1.99 -54.84,5.89 -76.3,23.88c-1.05,0.76 -2.1,1.53 -3.19,2.31c-6.65,6.36 -10.47,14.27 -10.95,23.42c-0.08,4.91 0.3,9.43 1.14,14.27c-1.1,-0.02 -2.2,-0.03 -3.33,-0.05c-4.15,-0.05 -8.3,-0.09 -12.45,-0.11c-1.79,-0.02 -3.57,-0.04 -5.35,-0.07c-25.73,-0.37 -49.37,4.66 -68.72,22.94c-3.28,3.48 -5.82,7.12 -8.15,11.29c-0.39,0.66 -0.78,1.32 -1.18,2c-3.72,7.15 -4.08,15.1 -4.82,23c-1.56,0.24 -1.56,0.24 -3.16,0.48c-20.92,3.34 -43.57,9.46 -56.97,27.33c-1.97,2.88 -1.97,2.88 -2.13,5.28c-0.24,0.63 -0.49,1.26 -0.74,1.91c-2.48,1.02 -2.48,1.02 -5.75,1.81c-14.84,4.2 -28.13,12.81 -36.25,26.19c-0.54,1.52 -1.06,3.05 -1.57,4.58c-1.18,2.71 -1.83,4.08 -4.43,5.54c-2.49,0.72 -4.94,1.21 -7.5,1.63c-1.81,0.38 -3.62,0.76 -5.43,1.15c-0.88,0.18 -1.75,0.36 -2.65,0.55c-11.76,2.68 -25.11,9.73 -32.42,19.55c-2.21,3.91 -4.16,7.9 -6,12c-4.54,-1.4 -8.74,-3.24 -13,-5.31c-22.97,-10.82 -46.8,-14.31 -72,-15.69c0,-0.66 0,-1.32 0,-2c8.51,-8.2 20.49,-15.55 32.56,-16.19c0.81,0.06 1.61,0.13 2.44,0.19c-0.06,-1.01 -0.12,-2.03 -0.19,-3.07c0.48,-10.08 8.25,-20.94 15.19,-27.93c15.22,-13 15.22,-13 22,-13c0.33,-1.26 0.66,-2.52 1,-3.81c4.74,-14.03 16.8,-24.17 29.62,-30.68c7.75,-3.46 14.85,-5.78 23.38,-5.51c-0.03,-1.09 -0.07,-2.18 -0.11,-3.3c-0.43,-19.05 4.74,-34.55 18.11,-48.7c9.85,-9.31 21.59,-15.16 35,-17c0.33,-0.33 0.66,-0.66 1,-1c3.49,-0.25 7,-0.19 10.5,-0.19c0.97,-0.01 1.94,-0.02 2.94,-0.03c6.17,-0.02 11.59,0.66 17.56,2.22c-0.17,-0.89 -0.33,-1.77 -0.5,-2.69c-2.04,-14.86 0.49,-28.56 8.5,-41.31c5.65,-7.38 12.02,-13.24 20,-18c0.87,-0.52 1.74,-1.04 2.63,-1.58c14.24,-7.83 29.32,-10.34 45.37,-9.42c-0.04,-1.06 -0.07,-2.12 -0.11,-3.21c0.2,-6.82 3.36,-12.9 8.11,-17.79c1.96,-1.39 3.95,-2.74 6,-4c-1.09,-3.77 -2.54,-7.11 -4.38,-10.56c-9.4,-18.37 -10.91,-42.05 -5.01,-61.78c5.97,-15.73 14.73,-29.51 26.39,-41.66c0.94,-1.01 0.94,-1.01 1.89,-2.05c25.82,-27.12 68.54,-45.08 105.86,-46.2c5.16,0.12 10.21,1.19 15.25,2.25c0,-0.66 0,-1.32 0,-2c3.1,-0.03 6.21,-0.05 9.31,-0.06c1.38,-0.02 1.38,-0.02 2.78,-0.03c4.89,-0.03 9.35,0.25 14.16,1.22c2.48,0.39 2.48,0.39 4.75,-0.13c2.43,-2.14 4.09,-4.45 5.93,-7.11c8.27,-11.56 21.93,-19.83 35.07,-24.89c0.99,0 1.98,0 3,0c-0.33,-1.16 -0.66,-2.31 -1,-3.5c-3,-13.81 -1.23,-27.24 5.62,-39.62c10.77,-16.51 25.77,-26.26 44.38,-31.88c1.08,-0.34 2.16,-0.68 3.28,-1.03c11.8,-3.1 21.92,-1.97 34.72,-1.97z" id="svg_5" style="fill: rgb(238, 46, 116);" transform="translate(1920,360)"/><path d="m0,776c10.44,8.35 17.49,22.64 19,36c0.14,4.01 0.12,7.99 0,12c0.87,-0.4 0.87,-0.4 1.76,-0.8c0.78,-0.36 1.56,-0.71 2.37,-1.07c1.14,-0.53 1.14,-0.53 2.32,-1.06c6.09,-2.55 10.89,-3.34 17.43,-3.19c1.17,0.01 1.17,0.01 2.37,0.02c1.92,0.03 3.83,0.06 5.75,0.1c0,1.98 0,3.96 0,6c0.87,-0.49 1.73,-0.99 2.63,-1.5c3.65,-1.62 5.43,-1.85 9.37,-1.5c19.61,7.87 30.86,24.34 39,43c3,7.26 3,7.26 3,11c1.2,-0.1 1.2,-0.1 2.42,-0.21c8.01,-0.4 13.1,0.84 20.02,4.9c2.67,1.61 2.67,1.61 6.56,1.31c1.45,-1.3 1.45,-1.3 2.69,-3c2.45,-2.59 3.97,-3.49 7.56,-3.62c5.57,0.38 12.44,2.07 16.29,6.32c0.72,0.64 0.72,0.64 1.46,1.3c3.41,-0.2 4.92,-1.65 7.13,-4.12c8.69,-9.03 22.3,-17.83 34.87,-19.88c31.43,3.65 58.74,26.93 77.79,50.63c5.79,7.37 10.67,15.18 15.21,23.37c0.34,0.62 0.69,1.23 1.04,1.87c10.15,18.56 20.35,42.46 20.02,64.01c-0.01,0.78 -0.02,1.56 -0.02,2.36c-0.02,0.87 -0.02,0.87 -0.04,1.76c0.89,0.2 0.89,0.2 1.8,0.41c15.61,4.05 30.44,16.19 39.2,29.59c0,0.66 0,1.32 0,2c0.87,-0.42 1.74,-0.84 2.63,-1.28c1.16,-0.55 2.31,-1.09 3.5,-1.66c1.13,-0.54 2.27,-1.09 3.44,-1.65c5.69,-2.34 12.3,-3.48 18.43,-2.41c2.56,2.38 2.56,2.38 4,5c0,0.66 0,1.32 0,2c0.51,-0.29 1.02,-0.58 1.54,-0.87c0.69,-0.38 1.38,-0.75 2.09,-1.13c0.67,-0.37 1.34,-0.74 2.03,-1.12c4.13,-1.55 7.25,-1.29 11.35,0.26c19.04,10.19 28.99,24.37 37.99,43.86c-147.18,0 -294.36,0 -446,0c0,-98.67 0,-197.34 0,-299z" id="svg_6" style="fill: rgb(238, 46, 116);"/><path d="m0,0c2.38,-0.14 4.75,-0.24 7.13,-0.31c0.96,-0.07 0.96,-0.07 1.95,-0.13c8.13,-0.19 12.39,2.39 20.92,5.44c0,83.16 0,166.32 0,252c-140.25,0 -280.5,0 -425,0c7.46,-18.65 20.04,-35.55 38.76,-44.15c3.92,-1.48 6.52,-1.58 10.38,0.06c1.99,0.97 3.93,1.99 5.86,3.09c0.29,-0.6 0.58,-1.2 0.87,-1.81c1.13,-2.19 1.13,-2.19 3.13,-5.19c9.56,-1.29 19.66,2.58 28,7c0.25,-0.73 0.5,-1.46 0.76,-2.21c6.19,-13.94 23.59,-24.23 37.24,-29.79c0.99,0 1.98,0 3,0c-0.04,-0.88 -0.04,-0.88 -0.08,-1.78c-0.18,-6.92 0.85,-13.18 2.39,-19.91c0.22,-0.99 0.43,-1.98 0.65,-3.01c1.21,-5.43 2.72,-10.25 5.04,-15.3c0.74,-2.14 1.47,-4.29 2.19,-6.44c13.02,-36.69 40.45,-71.61 75.76,-88.86c12.08,-5.65 22.64,-9.96 35.8,-5.64c12.27,4.7 22.3,11.37 31.25,20.94c0,0.66 0,1.32 0,2c0.66,0 1.32,0 2,0c0.33,-0.99 0.66,-1.98 1,-3c1.74,-1.35 1.74,-1.35 3.87,-2.62c1.05,-0.64 1.05,-0.64 2.12,-1.29c4.79,-2.59 9.7,-2.96 15.01,-2.09c2.79,1.6 5.01,3.46 7,6c0,0.66 0,1.32 0,2c1.48,-0.87 1.48,-0.87 3,-1.75c0.97,-0.54 0.97,-0.54 1.96,-1.09c1.3,-0.74 2.6,-1.51 3.86,-2.32c5.85,-3.43 11.51,-3.47 18.18,-2.84c0.66,0.33 1.32,0.66 2,1c0.06,-1.09 0.12,-2.19 0.19,-3.31c0.73,-5.75 3.22,-10.56 5.81,-15.69c0.44,-0.91 0.89,-1.82 1.35,-2.76c7.16,-13.98 18.8,-27.2 33.65,-33.24c5.09,-0.81 8.49,0.83 13,3c0,-1.98 0,-3.96 0,-6z" id="svg_7" transform="translate(1890,818)" style="fill: rgb(238, 46, 116);"/><path d="m0,0c0.23,6.55 0.39,13.09 0.49,19.64c0.05,2.23 0.11,4.45 0.19,6.68c0.63,18.57 0.63,18.57 -2.62,23.79c-2.41,2.08 -2.41,2.08 -4.82,3.5c-4.62,2.87 -6.56,8.61 -7.81,13.71c-0.5,2.22 -0.98,4.45 -1.43,6.68c-0.58,0.01 -1.17,0.03 -1.77,0.04c-26.51,0.74 -52.24,4.72 -72.23,23.96c-5.51,6.36 -10.29,12.98 -13,21c-0.36,1.03 -0.72,2.07 -1.09,3.13c-1.11,4.74 -1.17,9.09 -1.1,13.93c0,0.87 0,1.75 0,2.65c0.04,4.53 0.27,8.83 1.19,13.29c-0.96,0.42 -1.91,0.85 -2.89,1.29c-13.76,6.19 -29.94,13.66 -36.74,27.9c-1.41,2.22 -1.41,2.22 -3.37,3.81c-3.92,0.43 -7.62,0 -11.52,-0.45c-18.67,-2.13 -38.07,-1.23 -56.48,2.45c-1.29,0.25 -1.29,0.25 -2.6,0.5c-37.34,7.44 -75.01,27.45 -96.94,59.44c-7.48,11.38 -12.8,23.68 -15.46,37.06c-0.18,0.74 -0.36,1.48 -0.55,2.25c-2.94,18.02 1.47,34.02 8.96,50.29c1.29,2.8 2.48,5.59 3.59,8.46c-0.52,0.33 -1.04,0.66 -1.57,1c-7.43,5.06 -10.8,10.53 -12.56,19.3c-0.3,1.56 -0.59,3.13 -0.87,4.7c-0.91,0.07 -0.91,0.07 -1.84,0.14c-23.03,1.74 -44.49,6.38 -61.16,23.86c-10.11,12.11 -13.2,24.49 -13.06,39.94c0,0.97 0.01,1.94 0.01,2.94c0.01,2.37 0.03,4.75 0.05,7.12c-0.68,-0.14 -1.36,-0.29 -2.06,-0.44c-18.96,-3.63 -36.69,-1.93 -53.4,7.95c-2.54,1.49 -2.54,1.49 -5.54,2.49c-1.95,-5.74 -2.35,-10.89 -2.31,-16.94c0,-0.92 0.01,-1.84 0.01,-2.8c0.48,-28.42 12.98,-52.05 32.67,-71.9c1.63,-1.36 1.63,-1.36 3.63,-1.36c-0.4,-1.16 -0.4,-1.16 -0.8,-2.34c-0.36,-1.05 -0.71,-2.09 -1.08,-3.16c-0.34,-1.02 -0.69,-2.04 -1.05,-3.09c-6.35,-20.21 -3.85,-40.07 5.8,-58.77c14.63,-27.25 40.19,-45.02 69.28,-54.33c6.01,-1.74 12.04,-3.13 18.26,-3.86c7.41,-0.57 7.41,-0.57 13.2,-4.51c0.94,-2.51 0.94,-2.51 1.57,-5.18c3.11,-10.47 13.68,-17.07 22.76,-22.01c6.99,-3.28 14.33,-5.27 22.06,-4.75c0.17,-0.87 0.33,-1.73 0.5,-2.62c2.52,-5.67 7.9,-8.94 13.5,-11.38c2.75,-0.12 2.75,-0.12 5,0c-0.65,-1.14 -1.3,-2.27 -1.96,-3.45c-2.27,-4.55 -2.7,-8.39 -2.6,-13.42c0.01,-0.8 0.02,-1.59 0.04,-2.4c0.4,-10.61 4.95,-17.17 12.57,-24.4c12.02,-9.5 24,-11.71 38.95,-11.33c-0.05,-0.8 -0.09,-1.6 -0.14,-2.42c-0.47,-14.42 4.22,-25.62 13.65,-36.47c10.78,-11.27 27.36,-22.54 43.53,-23.24c1.04,0 2.08,0 3.15,0.01c1.04,-0.01 2.09,-0.01 3.17,-0.01c2.64,0.13 2.64,0.13 4.64,1.13c0.33,-0.99 0.66,-1.98 1,-3c10.53,-0.2 20.65,-0.31 31,2c0.26,-0.88 0.51,-1.76 0.77,-2.66c5.62,-15.27 20.41,-26.1 34.55,-32.95c9.86,-4.2 19.01,-7.14 29.68,-4.39c0.33,-0.99 0.66,-1.98 1,-3c10.81,-0.38 20.47,0.46 31,3c0.1,-0.72 0.21,-1.43 0.31,-2.17c1.91,-7.84 13.52,-25.83 22.69,-25.83z" id="svg_8" transform="translate(1920,242)" style="fill: rgb(238, 46, 116);"/><path d="m0,398c6.95,1.39 12.02,2.49 18.06,5.63c0.69,0.35 1.38,0.7 2.08,1.06c8.56,4.54 15.66,10.39 19.86,19.31c2.3,7.53 1.52,13.61 -2,20.63c-0.98,1.8 -1.97,3.59 -3,5.37c1.24,0.06 2.48,0.12 3.75,0.19c7.99,0.92 15.16,3.68 20.88,9.36c4.92,4.45 9.83,4.85 16.25,5.51c20.87,2.77 42.55,9.08 56.07,26.44c4.05,5.89 4.05,5.89 4.05,8.5c0.7,-0.05 1.39,-0.09 2.11,-0.14c47.1,-1.61 103.21,16.56 138.46,48.3c12.94,12.11 23.11,27.51 24.67,45.61c0.16,6.5 -0.48,12.38 -2.05,18.67c-0.17,0.66 -0.33,1.32 -0.5,2c-0.85,3.16 -1.86,5.88 -3.39,8.78c-1.45,2.6 -1.45,2.6 -1.3,4.95c1.45,2.66 3.33,3.57 5.94,5.08c5.76,3.5 10.9,7.42 16.06,11.75c0.75,0.6 1.5,1.21 2.27,1.83c14.86,12.41 23.58,28.82 28.73,47.17c0.33,0.99 0.66,1.98 1,3c0.95,10.54 0.6,20.62 -3.12,30.57c-1.05,2.47 -1.05,2.47 -0.88,5.43c0.77,0.35 1.55,0.7 2.34,1.07c15.84,7.5 15.84,7.5 19.66,15.49c0.98,3.38 1.08,5.96 1,9.44c1.22,-0.01 1.22,-0.01 2.46,-0.02c3.07,-0.01 6.14,-0.03 9.22,-0.03c1.95,-0.01 3.91,-0.03 5.87,-0.04c11.68,-0.03 23.05,0.46 34.45,3.09c1.29,0.28 2.58,0.56 3.91,0.84c19,4.19 37.71,10.91 53.09,23.16c0.85,0.68 1.7,1.35 2.58,2.05c7.05,5.95 12.63,12.71 15.65,21.54c2.32,4.47 4.71,5.48 9.21,7.41c1.45,0.68 2.91,1.36 4.36,2.04c0.71,0.33 1.43,0.66 2.17,1c17.63,8.33 33.64,21.41 44.03,37.96c0.47,0.75 0.95,1.5 1.43,2.28c7.49,12.64 9.98,28.74 6.66,43.09c-2.57,9.74 -6.49,18.23 -12.09,26.63c-0.46,2.74 -0.46,2.74 -0.62,5.69c-0.08,0.99 -0.15,1.99 -0.23,3.01c-0.05,0.76 -0.1,1.52 -0.15,2.3c-0.33,0 -0.66,0 -1,0c-0.03,-0.6 -0.07,-1.21 -0.1,-1.83c-0.97,-16.7 -0.97,-16.7 -6.9,-32.17c-0.51,-0.99 -1.01,-1.98 -1.53,-3c-9.32,-17.25 -26.18,-31.61 -44.34,-39.08c-14.62,-6.04 -14.62,-6.04 -18.25,-13.86c-0.47,-1.19 -0.94,-2.39 -1.42,-3.62c-2.34,-5.52 -6.2,-9.32 -10.46,-13.44c-0.66,-0.65 -1.32,-1.29 -2,-1.96c-9.77,-9.04 -21.47,-13.54 -33.74,-18.18c-1.8,-0.68 -3.59,-1.4 -5.38,-2.12c-18.25,-6.87 -39.28,-7.69 -58.57,-8.3c-1.28,-0.05 -2.57,-0.09 -3.89,-0.13c-3.14,-0.11 -6.28,-0.21 -9.42,-0.31c-0.12,-0.68 -0.25,-1.36 -0.37,-2.06c-0.17,-0.89 -0.34,-1.79 -0.51,-2.71c-0.17,-0.88 -0.33,-1.77 -0.5,-2.68c-1.32,-5.42 -3.86,-8.36 -8.44,-11.46c-4.6,-2.75 -9.16,-5.2 -14.18,-7.09c0.48,-1.94 0.96,-3.88 1.44,-5.81c0.26,-1.08 0.53,-2.16 0.81,-3.27c0.51,-1.99 1.1,-3.97 1.75,-5.92c0.96,-12.24 1.04,-24.64 -4,-36c-0.73,-1.7 -0.73,-1.7 -1.47,-3.43c-10,-21.58 -27.93,-38.13 -48.53,-49.57c0.98,-3.05 2,-6.01 3.29,-8.95c5.09,-12.12 6.08,-26.81 1.8,-39.42c-0.36,-0.87 -0.72,-1.74 -1.09,-2.63c-0.45,-1.09 -0.9,-2.19 -1.37,-3.31c-13.21,-28.88 -42.28,-45.86 -70.8,-56.92c-13.01,-4.75 -26.35,-8.61 -39.83,-11.77c-1.19,-0.28 -2.38,-0.57 -3.61,-0.86c-6.07,-1.3 -11.93,-2.15 -18.14,-2.49c-2.88,-0.15 -5.75,-0.34 -8.63,-0.53c-1.44,-0.08 -2.89,-0.14 -4.33,-0.18c-11.71,-0.33 -11.71,-0.33 -15.67,-4.37c-1.83,-2.93 -1.83,-2.93 -3.24,-5.83c-5.26,-10.46 -18.96,-16.55 -29.59,-20.28c-3.9,-1.29 -7.83,-2.4 -11.79,-3.46c-0.8,-0.22 -1.59,-0.45 -2.41,-0.68c-3.57,-0.9 -7.07,-1.38 -10.73,-1.67c-0.76,-0.07 -1.52,-0.13 -2.29,-0.2c-1.52,-0.13 -3.03,-0.24 -4.54,-0.31c-4.35,-0.38 -5.63,-0.7 -8.73,-4.05c-0.76,-1.02 -1.52,-2.04 -2.3,-3.09c-7.2,-4.65 -15.7,-6.38 -24,-8c0.29,-0.56 0.57,-1.12 0.87,-1.7c4.94,-9.71 4.94,-9.71 5.13,-20.3c-2.25,-6.01 -5.09,-10.79 -10,-15c-0.51,-0.49 -1.03,-0.98 -1.55,-1.49c-4.73,-4.39 -8.12,-5.7 -14.45,-8.51c0,-16.17 0,-32.34 0,-49z" id="svg_9" style="fill: rgb(214, 15, 91);"/><path d="m0,0c1.07,0.01 2.14,0.02 3.24,0.03c0.81,0.01 1.61,0.02 2.45,0.03c0.19,1.16 0.38,2.32 0.58,3.51c0.27,1.54 0.53,3.08 0.79,4.62c0.19,1.14 0.19,1.14 0.39,2.3c0.59,3.43 1.22,6.53 2.4,9.81c0.96,3.16 0.97,4.68 -0.16,7.76c-1.72,1.97 -1.72,1.97 -3.94,3.94c-16.73,16.1 -28.72,40.18 -29.23,63.49c-0.01,1.96 -0.02,3.92 -0.02,5.89c-0.01,0.96 -0.02,1.93 -0.04,2.93c-0.01,5.97 0.56,11.52 1.8,17.37c0.43,2.38 0.43,2.38 0.43,6.38c-1.58,1.46 -1.58,1.46 -3.69,2.82c-6.57,4.68 -9.25,8.58 -10.63,16.62c-0.24,1.85 -0.48,3.71 -0.68,5.56c-0.55,0.01 -1.11,0.02 -1.68,0.03c-25.2,0.53 -50.06,6.15 -68.32,24.97c-6.51,7.14 -10.93,15.11 -13,24.57c-1.8,5.73 -6.87,8.49 -11.52,11.84c-14.05,10.21 -23.66,24.39 -29.48,40.59c-0.42,1.15 -0.83,2.3 -1.26,3.48c-5.92,18.92 -3.49,38.69 4.52,56.6c0.74,1.92 0.74,1.92 0.74,4.92c-0.59,0.15 -1.19,0.3 -1.8,0.45c-5.75,1.63 -8.92,3.28 -12.2,8.55c-0.92,2.68 -1.47,5.21 -2,8c-3.67,-0.98 -7.34,-1.99 -11,-3c-0.89,-0.24 -1.77,-0.48 -2.68,-0.72c-0.83,-0.24 -1.66,-0.47 -2.51,-0.71c-0.74,-0.21 -1.47,-0.41 -2.23,-0.63c-2.24,-0.81 -4.13,-1.75 -6.22,-2.87c-4.82,-2.46 -9.78,-3.6 -15.05,-4.75c-1.39,-0.32 -1.39,-0.32 -2.8,-0.65c-2.5,-0.57 -5,-1.13 -7.51,-1.67c-1.24,-0.27 -1.24,-0.27 -2.51,-0.55c-22.89,-4.13 -48.54,2.58 -67.49,15.55c-14.15,10.35 -23.47,22.72 -30,39c-0.32,0.73 -0.63,1.46 -0.96,2.22c-2.93,7.52 -3.26,15.81 -4.04,23.78c-0.99,0.23 -1.98,0.46 -3,0.7c-8.62,1.95 -8.62,1.95 -16.32,6.12c-3.77,2.63 -6.21,2.29 -10.66,1.6c-14.04,-1.92 -27.19,-0.6 -38.99,7.88c-5.28,4.42 -9.34,9.36 -12.03,15.7c-4.44,-0.39 -7.9,-1.32 -12,-3.06c-8.42,-3.16 -17.87,-3.43 -26.38,-0.37c-6.09,2.85 -11.87,6.81 -15.62,12.43c-3,-1 -3,-1 -5.38,-4.12c-2.92,-3.64 -5.99,-5.16 -10.19,-7.13c-6.24,-3.11 -8.45,-6.1 -10.8,-12.59c-0.21,-0.71 -0.42,-1.42 -0.63,-2.16c15.28,-8.73 29.86,-8.41 47,-8c0.33,-0.77 0.65,-1.54 0.99,-2.34c3.94,-8.61 8.45,-15.04 17.19,-19.16c3,-0.53 5.78,-0.64 8.82,-0.5c-0.05,-0.87 -0.05,-0.87 -0.11,-1.76c-0.5,-15.22 5.3,-29.57 15.54,-40.74c7.88,-8.22 19.45,-18.14 31.4,-18.79c12.41,1.66 25.1,10 34.17,18.29c0.08,-0.99 0.16,-1.98 0.25,-3c0.61,-4.47 2.57,-8.09 4.75,-12c9.8,1.12 17.94,7.43 25,14c0.69,-1.57 0.69,-1.57 1.4,-3.18c5.15,-11.27 11.08,-19.72 22.65,-25.16c1.95,-0.66 1.95,-0.66 4.08,-0.88c2.4,-0.24 3.83,-0.45 5.87,-1.78c1.33,-3.14 2.12,-6.29 2.96,-9.61c2.61,-8.53 10.04,-15.15 17.04,-20.39c1.02,-0.45 2.04,-0.9 3.09,-1.36c3.59,-2.02 4.31,-3.64 5.91,-7.39c5.56,-11.92 14.33,-18.67 26.48,-23.62c3.22,-0.8 6.21,-0.73 9.52,-0.63c-0.05,-0.94 -0.1,-1.88 -0.14,-2.86c-0.43,-15.23 3.92,-27.37 14.26,-38.89c8.26,-7.75 19.53,-12.55 30.81,-12.5c1.15,0 2.29,-0.01 3.47,-0.01c4.09,0.3 7.65,1.17 11.6,2.26c-0.03,-0.87 -0.03,-0.87 -0.07,-1.77c-0.53,-17.04 0.9,-27.29 12.81,-40.1c10.09,-9.7 23.15,-14.16 36.94,-14.25c1.44,0.03 2.88,0.07 4.32,0.12c-0.08,-1.01 -0.17,-2.02 -0.25,-3.06c0.38,-6.07 2.8,-9.56 7.06,-13.62c1.08,-1.15 1.08,-1.15 2.19,-2.32c-0.56,-4.65 -3.02,-9.19 -4.75,-13.51c-2.5,-6.96 -3.62,-13.21 -3.57,-20.61c0.01,-0.83 0.01,-1.66 0.02,-2.51c0.4,-21.53 9.66,-38.1 23.67,-53.86c1.63,-1.51 1.63,-1.51 3.63,-1.51c0,-0.66 0,-1.32 0,-2c16.21,-14.89 40.91,-28.31 63.31,-28.06z" id="svg_10" transform="translate(1455.3125,531.9375)" style="fill: rgb(214, 15, 91);"/><path d="m0,721c1.27,0.6 2.53,1.21 3.79,1.83c0.7,0.34 1.41,0.68 2.13,1.03c3.35,1.84 5.92,4.3 8.58,7.02c0.56,0.56 1.12,1.13 1.69,1.72c10.88,11.53 18.05,27.48 18.12,43.53c-0.1,1.27 -0.2,2.55 -0.31,3.87c0.81,-0.35 1.62,-0.7 2.45,-1.06c1.6,-0.68 1.6,-0.68 3.24,-1.38c1.58,-0.68 1.58,-0.68 3.2,-1.37c11.34,-4.34 24.39,-3.02 35.42,1.5c19.83,9.26 31.81,25.36 39.69,45.31c0.9,3.03 1.51,5.87 2,9c0.66,-0.33 1.32,-0.66 2,-1c9.94,-1.15 17.1,2.33 25,8c0.49,-0.55 0.97,-1.09 1.48,-1.65c13.42,-14.28 31.69,-23.51 51.36,-24.55c32.12,-0.62 58.82,13.92 81.68,35.77c0.49,0.47 0.98,0.94 1.48,1.43c0.56,0.53 1.11,1.06 1.69,1.61c4.29,4.19 8.06,8.61 11.69,13.39c0.56,0.74 1.12,1.48 1.7,2.24c18.85,25.23 34.8,58.76 34.92,90.76c0.53,0.15 1.07,0.29 1.62,0.45c15.94,4.8 30.2,16.78 39.38,30.55c0.8,-0.27 1.61,-0.54 2.44,-0.81c1.17,-0.39 2.35,-0.79 3.56,-1.19c0.73,-0.25 1.47,-0.51 2.23,-0.77c0.77,-0.26 1.54,-0.52 2.33,-0.79c1.09,-0.38 1.09,-0.38 2.19,-0.76c11.84,-3.6 25.2,-2.39 36.38,2.76c20.69,11.4 33.86,30.43 40.87,52.56c1.18,4.44 2,8.39 2,13c1.02,-0.07 2.03,-0.14 3.08,-0.21c11.03,-0.52 19.02,1.23 27.73,8.59c0.72,0.86 1.45,1.73 2.19,2.62c0.6,0.65 1.19,1.31 1.81,1.98c5.04,5.56 5.04,5.56 6.19,9.02c-20.13,0 -40.26,0 -61,0c-3.3,-5.94 -6.6,-11.88 -10,-18c-8.54,-11.06 -19.5,-24.23 -34.25,-26.5c-3.3,0.6 -5.81,1.9 -8.75,3.5c-0.66,0 -1.32,0 -2,0c-4,-4.47 -4,-4.47 -4,-7c-8.54,0.76 -15.55,1.56 -23.05,5.98c-1.95,1.02 -1.95,1.02 -4.95,1.02c-1.68,-1.79 -1.68,-1.79 -3.44,-4.19c-0.57,-0.77 -1.15,-1.55 -1.74,-2.35c-0.6,-0.81 -1.2,-1.62 -1.82,-2.46c-2.91,-3.93 -6.13,-6.98 -10,-9.94c-0.57,-0.43 -1.13,-0.86 -1.71,-1.31c-5.97,-4.45 -12.71,-8.72 -20.04,-10.37c-2.25,-1.38 -2.25,-1.38 -3.25,-5.17c-0.21,-1.61 -0.39,-3.22 -0.56,-4.83c-0.23,-1.75 -0.47,-3.5 -0.71,-5.24c-0.18,-1.31 -0.18,-1.31 -0.36,-2.64c-4.17,-28.31 -18.25,-56.56 -36.37,-78.5c-0.82,-1.02 -1.64,-2.04 -2.49,-3.09c-16.43,-20.1 -36.99,-34.44 -61.51,-42.91c-0.7,-0.26 -1.4,-0.52 -2.12,-0.78c-8.63,-2.92 -17.02,1.24 -24.88,4.78c-7.28,3.82 -13.21,8.7 -18.94,14.53c-1.43,1.41 -1.43,1.41 -4.06,3.47c-3.09,-0.09 -4.25,-1.17 -6.87,-2.94c-5.04,-3.32 -9.86,-4.67 -15.87,-4.6c-4.22,1 -6.65,4.26 -9.26,7.54c-3.37,-1.27 -6.38,-2.78 -9.5,-4.56c-5.98,-3.08 -11.86,-3.33 -18.5,-3.44c-0.36,-1.03 -0.73,-2.05 -1.1,-3.11c-5.2,-14.43 -11.47,-27.3 -22.9,-37.89c-0.57,-0.55 -1.14,-1.11 -1.73,-1.68c-5.59,-5.21 -11.79,-9.72 -19.52,-10.76c-3.08,0.49 -5.84,1.33 -8.75,2.44c0,-1.98 0,-3.96 0,-6c-10.03,0.13 -18.28,0.84 -27.56,4.94c-2.44,1.06 -2.44,1.06 -4.44,1.06c-0.1,-1 -0.2,-2.01 -0.3,-3.04c-1.35,-12.84 -3.41,-29.27 -13.39,-38.53c-4.06,-3.88 -5.78,-6.72 -6.1,-12.39c0,-2.28 0.04,-4.57 0.11,-6.85c0.01,-1.82 0.01,-1.82 0.03,-3.67c0.04,-3.84 0.12,-7.68 0.21,-11.52c0.04,-2.61 0.07,-5.23 0.1,-7.84c0.08,-6.39 0.19,-12.77 0.34,-19.16z" id="svg_11" style="fill: rgb(214, 15, 91);"/><path d="m0,0c0.33,0 0.66,0 1,0c0,28.71 0,57.42 0,87c-3.44,-0.69 -5.72,-1.24 -8.81,-2.5c-6.8,-2.37 -14.07,-2.25 -21.19,-2.5c0,1.98 0,3.96 0,6c-1.63,-0.52 -3.26,-1.04 -4.88,-1.56c-7.1,-1.47 -11.09,0.78 -17.03,4.45c-17.18,11.71 -26.68,29.4 -32.09,49.11c-0.92,-0.05 -1.84,-0.09 -2.78,-0.14c-8.98,-0.26 -14.42,0.51 -21.53,5.89c-1.69,1.25 -1.69,1.25 -4.69,1.25c-2.56,-2.37 -2.56,-2.37 -5,-5c-2.45,-2.45 -3.25,-2.32 -6.63,-2.37c-6.46,0.13 -11.07,2.19 -15.75,6.62c-0.53,0.58 -1.07,1.16 -1.62,1.75c-0.66,0 -1.32,0 -2,0c-0.98,-1.11 -1.91,-2.26 -2.81,-3.44c-8.27,-9.65 -22.44,-18.47 -35.19,-20.56c-6.05,-0.35 -10.8,0.47 -16.5,2.44c-0.78,0.26 -1.56,0.53 -2.36,0.8c-32.88,11.79 -60.62,41.12 -76.14,71.76c-2.19,4.64 -4.22,9.36 -6.2,14.09c-0.74,1.77 -1.49,3.52 -2.25,5.28c-3.85,9.06 -6.81,17.9 -8.68,27.57c-0.16,0.83 -0.33,1.66 -0.51,2.51c-1.15,5.83 -1.87,11.63 -2.36,17.55c-0.74,0.28 -1.48,0.56 -2.24,0.85c-15.8,6.24 -30.27,16.07 -38.76,31.15c-4.49,-0.77 -8.33,-2.29 -12.5,-4.06c-5.16,-1.94 -10.05,-2.55 -15.5,-1.94c-2.57,2.85 -2.57,2.85 -4,6c-5.75,-1.87 -5.75,-1.87 -8,-3c-11.4,0 -19.57,6.97 -27.59,14.5c-8.49,8.81 -13.6,18.61 -19.41,29.5c-21.12,0 -42.24,0 -64,0c6.48,-11.35 14.4,-18.74 27.11,-22.65c4.55,-0.84 9.48,-0.82 13.89,0.65c0.12,-1.16 0.24,-2.32 0.37,-3.52c2.84,-22.53 16.2,-42.48 33.63,-56.48c11.45,-8.34 23.97,-11.12 38,-10c3.77,0.73 7.36,1.78 11,3c0.89,0.29 1.77,0.57 2.68,0.87c2.12,0.69 4.22,1.4 6.32,2.13c0.65,-0.82 1.31,-1.64 1.98,-2.49c10.52,-12.97 21.66,-21.95 37.02,-28.51c0.66,0 1.32,0 2,0c0.06,-0.98 0.06,-0.98 0.12,-1.98c0.55,-7.26 1.83,-14.14 3.57,-21.21c0.4,-1.64 0.4,-1.64 0.81,-3.32c2.22,-8.8 4.88,-17.17 8.5,-25.49c0.31,-0.73 0.63,-1.47 0.95,-2.22c15.92,-36.92 44.42,-69.5 82.06,-85.04c20.07,-7.49 42.41,-8.71 62.16,0.06c10.87,5.08 19.58,11.47 27.83,20.2c0.58,-0.41 1.16,-0.82 1.76,-1.24c8.67,-5.99 14.76,-7.07 25.24,-6.76c0.4,-1.38 0.4,-1.38 0.81,-2.79c6.59,-21.68 19.07,-39.26 39.31,-50.08c11.17,-5.21 24.11,-5.91 35.88,-2.13c3.37,1.24 6.7,2.58 10,4c0.03,-0.78 0.05,-1.55 0.08,-2.35c0.81,-15.47 5.34,-29.41 14.92,-41.65z" id="svg_12" transform="translate(1919,736)" style="fill: rgb(214, 15, 91);"/><path d="m552,741c13.3,-0.88 25.15,2.19 36,10c1.03,0.72 1.03,0.72 2.07,1.45c11.8,9.2 16.82,22.23 18.93,36.55c0.23,3.1 0.23,5.89 0,9c1.32,0 2.64,0 4,0c11.47,1.16 23.47,8.5 31,17c3.76,4.69 6.68,8.81 7,15c1.21,0.31 1.21,0.31 2.44,0.63c12.1,4.67 21.08,13.9 26.47,25.55c1.3,3.38 1.93,6.22 2.09,9.82c1.13,0.08 2.27,0.17 3.44,0.25c9.41,1.18 17.52,6.65 24.56,12.75c1.95,2.66 1.95,2.66 3.69,5.5c0.58,0.94 1.16,1.88 1.76,2.84c0.51,0.88 1.02,1.76 1.55,2.66c0.4,0.67 0.8,1.34 1.21,2.03c0.97,2.42 0.93,4.39 0.79,6.97c0.89,-0.66 1.79,-1.33 2.71,-2.01c15.7,-11.52 15.7,-11.52 21.29,-12.99c2.76,0.8 3.74,1.58 5.27,4.02c0.32,0.78 0.65,1.56 0.98,2.36c0.34,0.77 0.67,1.54 1.02,2.33c0.73,2.29 0.73,2.29 0.73,6.29c1.06,-0.85 1.06,-0.85 2.13,-1.72c11.54,-9.03 25.82,-18.3 41.05,-17.75c16.61,2.78 31.89,13.92 41.82,27.13c7.5,11.24 12.59,23.69 12,37.34c0.97,0.08 1.94,0.16 2.94,0.25c8.41,1.26 15.41,5.46 21.06,11.75c3.06,4.39 5,7.58 5,13c1.1,-0.16 2.2,-0.32 3.34,-0.48c22.12,-2.74 42.05,0.91 60.66,13.48c2.69,2.38 2.69,2.38 5,5c0.55,0.59 1.11,1.17 1.68,1.77c3.2,3.47 5.62,6.64 7.63,10.92c2.44,4.69 5.42,6.08 10.17,8.11c3.79,1.81 6.47,4.35 9.52,7.2c-0.59,3.66 -2.08,5.55 -4.56,8.25c-0.64,0.71 -1.28,1.41 -1.94,2.14c-0.5,0.53 -0.99,1.06 -1.5,1.61c-0.62,-0.66 -1.24,-1.32 -1.87,-2c-10.66,-10.45 -21.3,-16.42 -36.38,-16.5c-9.88,0.19 -17.47,2.38 -25.94,7.51c-1.81,0.99 -1.81,0.99 -3.81,0.99c-0.33,-0.76 -0.66,-1.52 -1,-2.31c-5.76,-12.5 -14.21,-20.74 -27.02,-25.91c-5.59,-1.97 -11.04,-3.55 -16.98,-3.78c-1.18,-0.05 -2.37,-0.1 -3.59,-0.16c-17.51,-0.51 -33.38,4.14 -47.75,14.29c-2.5,1.75 -5.03,3.34 -7.66,4.87c-0.28,-0.77 -0.56,-1.55 -0.85,-2.34c-4.67,-12.15 -10.02,-17.63 -21.65,-23.21c-6.29,-2.6 -11.9,-3.81 -18.69,-3.76c-1.1,0 -1.1,0 -2.23,0c-5.67,0.1 -10.82,1.02 -16.26,2.65c-2.32,0.66 -2.32,0.66 -5.32,0.66c-0.06,-1.58 -0.06,-1.58 -0.11,-3.18c-0.59,-13.7 -3.03,-24.93 -13.15,-35.09c-9.4,-7.91 -19.77,-12.31 -31.74,-14.73c-0.15,-0.69 -0.29,-1.38 -0.45,-2.09c-2.86,-12 -8.85,-19.73 -19.01,-26.57c-13.17,-7.87 -29.13,-9.5 -43.94,-6c-3.22,0.82 -6.41,1.73 -9.6,2.66c-1.32,0.38 -2.65,0.76 -3.97,1.13c-1,0.29 -2,0.58 -3.03,0.87c-0.15,-0.64 -0.29,-1.28 -0.45,-1.94c-1.58,-6.13 -3.36,-11.16 -8.55,-15.06c-3.58,-1.66 -7.21,-2.91 -11,-4c0.65,-3.62 1.6,-6.98 2.81,-10.46c0.53,-1.54 0.53,-1.54 1.07,-3.12c0.74,-2.14 1.49,-4.29 2.24,-6.43c7.67,-22.47 5.02,-49.01 -5.13,-70.36c-7.03,-14.07 -16.23,-25.34 -27.5,-36.19c-2.19,-2.12 -4.34,-4.28 -6.49,-6.44z" id="svg_13" style="fill: rgb(214, 15, 91);"/><path d="m0,0c0,29.7 0,59.4 0,90c-7.92,3.96 -7.92,3.96 -16,8c-11.19,8.01 -18.46,16.93 -25,29c-0.64,-0.07 -1.28,-0.14 -1.94,-0.21c-22.04,-2.2 -43.1,-2.41 -63.06,8.21c-0.84,0.44 -1.68,0.88 -2.54,1.34c-11.18,6.27 -19.41,15.09 -26.46,25.66c-2.75,0.7 -2.75,0.7 -6,1.13c-4.14,0.47 -4.14,0.47 -8,1.87c-1.58,0.12 -3.16,0.18 -4.73,0.21c-0.96,0.03 -1.92,0.05 -2.91,0.08c-1.54,0.04 -1.54,0.04 -3.11,0.09c-16.38,0.59 -31.7,3.78 -46.25,11.62c2.65,-21.71 19.81,-40.74 36,-54c7.62,-5.4 17.37,-11.4 27,-10c2.36,1.01 4.63,2.09 6.89,3.32c2.12,0.92 2.12,0.92 4.28,-0.07c1.98,-1.2 1.98,-1.2 3.39,-3.44c3.52,-2.61 6.11,-2.04 10.35,-1.51c4.43,1 8.38,2.77 12.46,4.74c2.89,1.05 3.87,1.23 6.63,-0.04c1.91,-1.6 1.91,-1.6 3.75,-3.5c4.08,-3.75 6.77,-4.4 12.25,-4.5c-0.05,-0.78 -0.09,-1.55 -0.14,-2.35c-0.48,-14.35 3.29,-26.87 12.95,-37.67c8.61,-8.2 18.77,-12.15 30.5,-12.04c1.26,0.01 2.51,0.02 3.8,0.02c0.96,0.02 1.91,0.03 2.89,0.04c-0.33,-1.24 -0.66,-2.48 -1,-3.75c-2.55,-11.68 -1.11,-22.06 4.75,-32.44c6.12,-9.52 14.52,-16.14 25.52,-19.51c1.73,-0.3 1.73,-0.3 3.73,-0.3z" id="svg_14" transform="translate(1920,99)" style="fill: rgb(214, 15, 91);"/><path d="m0,0c6.1,3.48 11.76,7.32 17,12c0.08,-0.99 0.16,-1.98 0.25,-3c0.61,-4.47 2.57,-8.1 4.75,-12c9.8,1.12 17.94,7.43 25,14c0.66,-0.66 1.32,-1.32 2,-2c0,0.66 0,1.32 0,2c0.66,0.33 1.32,0.66 2,1c-1.33,1.04 -1.33,1.04 -2.69,2.09c-3.33,2.79 -5.82,5.86 -8.31,9.41c-0.43,0.61 -0.86,1.22 -1.3,1.84c-4.04,5.88 -7.05,12.04 -9.7,18.66c-0.32,0.73 -0.63,1.46 -0.96,2.21c-2.93,7.53 -3.26,15.82 -4.04,23.79c-0.99,0.23 -1.98,0.46 -3,0.7c-8.62,1.95 -8.62,1.95 -16.31,6.11c-3.78,2.64 -6.22,2.3 -10.66,1.6c-14.05,-1.92 -27.2,-0.59 -38.99,7.89c-5.29,4.42 -9.34,9.36 -12.04,15.7c-4.43,-0.39 -7.89,-1.33 -12,-3.06c-8.42,-3.16 -17.87,-3.43 -26.38,-0.38c-6.09,2.85 -11.87,6.81 -15.62,12.44c-3,-1 -3,-1 -5.38,-4.12c-2.92,-3.64 -5.98,-5.17 -10.18,-7.13c-6.25,-3.11 -8.45,-6.1 -10.8,-12.59c-0.21,-0.71 -0.42,-1.43 -0.64,-2.16c15.28,-8.73 29.86,-8.41 47,-8c0.33,-0.77 0.66,-1.55 1,-2.34c3.93,-8.62 8.45,-15.05 17.19,-19.16c3,-0.53 5.77,-0.64 8.81,-0.5c-0.05,-0.87 -0.05,-0.87 -0.11,-1.77c-0.5,-15.21 5.31,-29.56 15.55,-40.73c14.52,-15.17 28.98,-22.13 48.56,-12.5z" id="svg_15" transform="translate(1104,864)" style="fill: rgb(214, 15, 91);"/><path d="m0,0c0,15.18 0,30.36 0,46c-8.07,1.7 -8.07,1.7 -16.31,3.44c-38.91,8.48 -75.89,22.19 -104.69,50.56c-0.67,0.65 -1.33,1.31 -2.02,1.98c-8.8,9.32 -15.65,22.24 -16.98,35.02c-0.66,0 -1.32,0 -2,0c-10.74,-11.9 -16.54,-25.98 -16.32,-42.07c0.49,-6.02 2.12,-11.33 4.32,-16.93c0.42,-1.07 0.42,-1.07 0.84,-2.16c9.78,-21.91 31.7,-37.07 52.16,-47.84c0.64,-0.34 1.28,-0.69 1.93,-1.04c28.91,-15.36 66.22,-26.96 99.07,-26.96z" id="svg_16" transform="translate(1920,530)" style="fill: rgb(214, 15, 91);"/><path d="m0,0c0.74,0.34 1.48,0.69 2.24,1.04c5.19,2.51 5.19,2.51 6.32,4.77c-1.3,0.6 -1.3,0.6 -2.64,1.22c-18.87,9.01 -34.63,21.82 -42.48,41.62c-1.6,4.99 -2.39,9.95 -2.88,15.16c-0.94,0.16 -1.88,0.32 -2.86,0.48c-16.12,2.93 -28.97,8.17 -39.14,21.52c-0.38,0.86 -0.76,1.72 -1.15,2.6c-1.85,2.4 -1.85,2.4 -5.04,2.95c-1.3,-0.03 -2.6,-0.06 -3.94,-0.09c-0.71,-0.01 -1.41,-0.02 -2.14,-0.03c-2.28,-0.04 -4.57,-0.11 -6.85,-0.18c-2.33,-0.04 -4.66,-0.07 -6.99,-0.11c-1.52,-0.02 -3.05,-0.04 -4.58,-0.07c-7.8,-0.13 -15.53,0.26 -23.31,0.93c3.01,-8.64 10.19,-13.79 18.1,-17.88c4.57,-1.76 9.04,-2.1 13.9,-2.12c-0.04,-0.61 -0.09,-1.21 -0.14,-1.84c-0.84,-20.51 9.07,-38.11 22.14,-53.16c22.93,-24.26 51.64,-30.71 81.44,-16.81z" id="svg_17" transform="translate(1248.4375,906.1875)" style="fill: rgb(214, 15, 91);"/><path d="m0,0c7.28,1.9 13.74,4.58 20.38,8.13c0.91,0.48 1.83,0.97 2.78,1.47c7.18,3.89 13.62,8.09 19.84,13.4c0.5,0.42 1,0.83 1.51,1.26c11.86,10.01 20.26,21.44 26.49,35.74c0.65,1.43 0.65,1.43 1.32,2.9c5.18,13.51 4.95,31.93 -0.09,45.44c-1.66,3.6 -3.45,7.12 -5.47,10.54c-1,2.11 -1,2.11 -0.06,4.19c1.23,1.83 2.49,3.52 3.93,5.18c1.17,1.36 1.17,1.36 2.37,2.75c-1.58,-0.14 -3.17,-0.29 -4.75,-0.44c-1.32,-0.12 -1.32,-0.12 -2.67,-0.24c-2.58,-0.32 -2.58,-0.32 -4.37,-0.82c-2.72,-0.61 -5.29,-0.72 -8.07,-0.82c-1.67,-0.06 -1.67,-0.06 -3.38,-0.12c-1.16,-0.04 -2.32,-0.08 -3.51,-0.12c-1.17,-0.05 -2.35,-0.09 -3.56,-0.13c-2.9,-0.11 -5.79,-0.21 -8.69,-0.31c-0.06,-1.09 -0.06,-1.09 -0.13,-2.2c-0.67,-9.41 -3.18,-16.87 -10.43,-23.3c-2.68,-2.06 -5.47,-3.88 -8.44,-5.5c0.12,-1.48 0.24,-2.96 0.38,-4.44c0.06,-0.82 0.13,-1.64 0.21,-2.49c0.33,-2.47 0.81,-4.69 1.42,-7.09c5.82,-25.57 -1.03,-54.76 -14.45,-76.92c-0.49,-0.75 -0.98,-1.5 -1.49,-2.27c-1.07,-1.79 -1.07,-1.79 -1.07,-3.79z" id="svg_18" transform="translate(402,540)" style="fill: rgb(214, 15, 91);"/><path d="m0,0c-0.54,8.02 -1.15,16.01 -2,24c-1.87,0.44 -1.87,0.44 -3.77,0.88c-17.55,4.26 -33.18,11.27 -43.23,27.12c-1.07,2.23 -2.13,4.45 -3.19,6.69c-3.22,6.22 -6.34,8.21 -12.68,10.87c-11.45,5.26 -18.97,15.37 -24.38,26.42c-0.85,2.28 -1.16,4.44 -1.5,6.83c-0.76,3.84 -0.76,3.84 -2.83,5.32c-2.12,0.8 -4.21,1.35 -6.42,1.87c-1.46,0.44 -2.92,0.9 -4.38,1.38c-1.1,0.36 -1.1,0.36 -2.23,0.73c-4.3,1.61 -8.34,3.75 -12.39,5.89c0.09,-19.3 12.21,-37.51 25,-51c4.69,-4.25 9.44,-8.11 14.94,-11.25c4.24,-2.91 4.72,-7.59 5.98,-12.33c5.07,-16.02 19.44,-27.55 33.7,-35.17c12.69,-6.01 25.3,-9.27 39.38,-8.25z" id="svg_19" transform="translate(1427,729)" style="fill: rgb(214, 15, 91);"/><path d="m0,0c2.02,0.88 3.98,1.85 5.94,2.87c0.7,0.36 1.41,0.72 2.13,1.1c5.97,3.15 11.15,6.82 16.12,11.4c1.16,1.06 1.16,1.06 2.36,2.15c5.36,5.13 9.66,10.6 13.64,16.85c0.58,0.91 1.17,1.83 1.77,2.77c11.23,18.32 11.23,18.32 11.23,27.23c-7.74,-0.13 -13.62,-0.82 -20.35,-4.7c-3.15,-1.54 -6.17,-2.13 -9.59,-2.86c-7.48,-1.96 -10.92,-5.74 -15.56,-11.57c-2.35,-3 -2.35,-3 -5.6,-4.68c-4.1,-3.09 -4.82,-6.47 -6.28,-11.25c-2.42,-7.29 -5.04,-12.83 -9.92,-18.81c-1.58,-1.98 -2.67,-3.83 -3.7,-6.13c1.53,-0.85 3.07,-1.68 4.62,-2.5c0.86,-0.46 1.72,-0.93 2.6,-1.41c3.78,-1.49 6.7,-1.81 10.59,-0.46z" id="svg_20" transform="translate(107.81298828125,173.630859375)" style="fill: rgb(214, 15, 91);"/><path d="m0,0c4.29,0 8.58,0 13,0c0.33,0.99 0.66,1.98 1,3c1.22,-0.27 2.43,-0.54 3.69,-0.81c11.65,-1.26 23.33,7 32.01,13.98c8.14,7.06 14.25,14.75 18.3,24.83c0,0.99 0,1.98 0,3c-0.91,-0.25 -1.82,-0.51 -2.76,-0.77c-11.3,-3.04 -22.65,-4.76 -34.24,-6.23c-0.28,-0.83 -0.56,-1.67 -0.85,-2.53c-5.43,-15.25 -15.45,-26.4 -30.15,-33.47c0,-0.33 0,-0.66 0,-1z" id="svg_21" transform="translate(218,319)" style="fill: rgb(214, 15, 91);"/><path d="m0,0c11.26,1.25 19.31,4.54 27,13c5.27,6.82 11,16.07 11,25c-12.54,-0.66 -25.08,-1.32 -38,-2c0,-11.88 0,-23.76 0,-36z" id="svg_22" transform="translate(0,112)" style="fill: rgb(214, 15, 91);"/><path d="m0,0c2,1 2,1 2.63,2.85c0.17,0.73 0.33,1.46 0.5,2.21c0.16,0.74 0.33,1.47 0.5,2.23c0.12,0.56 0.25,1.13 0.37,1.71c0.96,0.06 0.96,0.06 1.95,0.11c27.81,2.03 53.95,15.7 72.66,36.25c4.93,5.83 10.79,13.1 12.39,20.64c-0.64,-0.64 -1.28,-1.28 -1.94,-1.94c-0.69,-0.68 -0.69,-0.68 -1.4,-1.38c-1.2,-1.22 -2.39,-2.46 -3.57,-3.7c-14.4,-14.94 -31.64,-24.35 -51.09,-30.98c-0.83,-0.31 -1.66,-0.61 -2.51,-0.93c-10.11,-3.64 -20.94,-5.22 -31.49,-7.07c0.33,-6.6 0.66,-13.2 1,-20z" id="svg_23" transform="translate(384,469)" style="fill: rgb(214, 15, 91);"/><path d="m0,0c-1.04,0.48 -2.08,0.97 -3.15,1.47c-13.18,6.27 -24.08,13 -30.85,26.53c-2,0.7 -4.02,1.31 -6.06,1.88c-8.81,2.62 -14.92,5.77 -21.86,11.83c-2.08,1.29 -2.08,1.29 -4.35,0.99c-1.73,-0.7 -1.73,-0.7 -2.45,-2.34c-0.63,-5.29 4.69,-10.33 7.72,-14.36c11.34,-14.32 31.37,-22.53 48.81,-25.75c1.12,-0.21 1.12,-0.21 2.25,-0.42c3.65,-0.64 6.4,-0.89 9.94,0.17z" id="svg_24" transform="translate(1080,1008)" style="fill: rgb(214, 15, 91);"/><path d="m0,0c0.64,0.24 1.28,0.49 1.94,0.74c4.12,1.68 5.83,3.09 9.12,6.39c-24.09,0 -48.18,0 -73,0c3.73,-2.8 7.08,-4.42 11.38,-6c0.7,-0.27 1.41,-0.53 2.13,-0.79c16.95,-6.09 31.62,-6.88 48.43,-0.34z" id="svg_25" transform="translate(894.9375,1067.875)" style="fill: rgb(214, 15, 91);"/><path d="m0,0c8.11,5.09 15.78,12.39 18,22c-0.95,-0.87 -1.9,-1.73 -2.87,-2.62c-11.91,-10.06 -26.86,-15.25 -42.4,-15.7c-1.02,-0.03 -1.02,-0.03 -2.06,-0.06c-2.16,-0.06 -4.32,-0.12 -6.48,-0.18c-1.47,-0.05 -2.94,-0.09 -4.41,-0.13c-3.6,-0.11 -7.19,-0.21 -10.78,-0.31c0,-0.33 0,-0.66 0,-1c0.68,-0.01 1.36,-0.03 2.06,-0.04c3.09,-0.08 6.17,-0.18 9.25,-0.27c1.07,-0.03 2.15,-0.05 3.25,-0.07c1.03,-0.04 2.06,-0.07 3.12,-0.11c0.94,-0.02 1.89,-0.05 2.87,-0.08c2.84,-0.5 3.63,-1.26 5.45,-3.43c8.68,-4.76 16.59,-2.24 25,2z" id="svg_26" transform="translate(651,939)" style="fill: rgb(214, 15, 91);"/><path d="m0,0c8.7,8.08 13.95,20 18,31c0,0.66 0,1.32 0,2c-3.96,0 -7.92,0 -12,0c-0.39,-1.88 -0.78,-3.75 -1.19,-5.69c-1.28,-5.13 -2.48,-8.04 -6.81,-11.31c-0.76,-0.6 -1.53,-1.2 -2.31,-1.81c-0.56,-0.39 -1.12,-0.79 -1.69,-1.19c1.41,-4.83 3.43,-8.72 6,-13z" id="svg_27" transform="translate(487,607)" style="fill: rgb(214, 15, 91);"/><path d="m0,0c8.26,1.02 15.61,8 21,14c0.54,0.59 1.07,1.18 1.63,1.79c4.37,4.92 4.37,4.92 4.37,7.21c-2.32,0.27 -2.32,0.27 -5,0c-1.59,-1.83 -1.59,-1.83 -2.94,-4.25c-5.09,-8.19 -12.17,-10.05 -21.06,-12.75c0.66,-1.98 1.32,-3.96 2,-6z" id="svg_28" transform="translate(168,289)" style="fill: rgb(214, 15, 91);"/><path d="m0,0c9.31,3.23 14.68,11.54 19,20c2.2,4.67 3.39,8.78 3,14c-0.66,-0.33 -1.32,-0.66 -2,-1c-0.64,-1.93 -0.64,-1.93 -1.25,-4.44c-2.72,-9.47 -8.1,-16.34 -14.8,-23.43c-1.95,-2.13 -1.95,-2.13 -3.95,-5.13z" id="svg_29" transform="translate(518,694)" style="fill: rgb(214, 15, 91);"/><path d="m0,0c1.8,1.45 1.8,1.45 4.8,6.45c-6.93,0 -13.86,0 -21,0c2.43,-2.43 4.73,-3.38 7.88,-4.75c1.57,-0.7 1.57,-0.7 3.18,-1.42c2.94,-0.83 2.94,-0.83 5.14,-0.28z" fill="#F00800" id="svg_30" transform="translate(817.1953125,1068.546875)"/><path d="m0,0c1.79,0.28 3.58,0.58 5.38,0.88c0.99,0.16 1.99,0.32 3.02,0.49c2.6,0.63 2.6,0.63 4.6,2.63c-3.96,-0.33 -7.92,-0.66 -12,-1c-0.33,-0.99 -0.66,-1.98 -1,-3z" fill="#F00800" id="svg_31" transform="translate(672,969)"/><path d="m0,0c4.42,1.35 6.34,3.26 9,7c-3,0 -3,0 -4.61,-1.53c-0.52,-0.65 -1.04,-1.3 -1.58,-1.97c-0.53,-0.65 -1.06,-1.3 -1.6,-1.97c-0.4,-0.5 -0.8,-1.01 -1.21,-1.53z" fill="#F00800" id="svg_32" transform="translate(518,694)"/></g></svg>